<mxfile host="app.diagrams.net" modified="2024-07-03T15:44:20.140Z" agent="Mozilla/5.0 (Windows NT 10.0; Win64; x64) AppleWebKit/537.36 (KHTML, like Gecko) Chrome/126.0.0.0 Safari/537.36" etag="EQxq6nxfuuzS63BggKcY" version="24.4.10" type="device">
  <diagram name="Страница — 1" id="dcs-ojNJeypXk_dExUI0">
    <mxGraphModel dx="1050" dy="1691" grid="1" gridSize="10" guides="1" tooltips="1" connect="1" arrows="1" fold="1" page="1" pageScale="1" pageWidth="827" pageHeight="1169" math="0" shadow="0">
      <root>
        <mxCell id="0" />
        <mxCell id="1" parent="0" />
        <mxCell id="Fd0U6N9erYDGeEgJ23XQ-4" value="" style="edgeStyle=orthogonalEdgeStyle;rounded=0;orthogonalLoop=1;jettySize=auto;html=1;" edge="1" parent="1" source="Fd0U6N9erYDGeEgJ23XQ-1" target="Fd0U6N9erYDGeEgJ23XQ-3">
          <mxGeometry relative="1" as="geometry" />
        </mxCell>
        <mxCell id="Fd0U6N9erYDGeEgJ23XQ-1" value="Начало" style="strokeWidth=2;html=1;shape=mxgraph.flowchart.terminator;whiteSpace=wrap;fontFamily=Times New Roman;fontSize=18;" vertex="1" parent="1">
          <mxGeometry x="356" width="116" height="40" as="geometry" />
        </mxCell>
        <mxCell id="Fd0U6N9erYDGeEgJ23XQ-2" value="Конец" style="strokeWidth=2;html=1;shape=mxgraph.flowchart.terminator;whiteSpace=wrap;fontFamily=Times New Roman;fontSize=18;" vertex="1" parent="1">
          <mxGeometry x="356" y="565" width="116" height="40" as="geometry" />
        </mxCell>
        <mxCell id="Fd0U6N9erYDGeEgJ23XQ-6" value="" style="edgeStyle=orthogonalEdgeStyle;rounded=0;orthogonalLoop=1;jettySize=auto;html=1;" edge="1" parent="1" source="Fd0U6N9erYDGeEgJ23XQ-3" target="Fd0U6N9erYDGeEgJ23XQ-5">
          <mxGeometry relative="1" as="geometry" />
        </mxCell>
        <mxCell id="Fd0U6N9erYDGeEgJ23XQ-3" value="&lt;span style=&quot;font-size:9.5pt;line-height:&lt;br/&gt;107%;font-family:&amp;quot;Cascadia Mono&amp;quot;;mso-fareast-font-family:Calibri;mso-fareast-theme-font:&lt;br/&gt;minor-latin;color:blue;mso-font-kerning:0pt;mso-ansi-language:EN-US;mso-fareast-language:&lt;br/&gt;EN-US;mso-bidi-language:AR-SA&quot; lang=&quot;EN-US&quot;&gt;int&lt;/span&gt;&lt;span style=&quot;font-size: 9.5pt; line-height: 107%; font-family: &amp;quot;Cascadia Mono&amp;quot;;&quot; lang=&quot;EN-US&quot;&gt; a, b, c, _v, _s;&lt;/span&gt;" style="whiteSpace=wrap;html=1;fontSize=18;fontFamily=Times New Roman;strokeWidth=2;" vertex="1" parent="1">
          <mxGeometry x="321" y="80" width="186" height="40" as="geometry" />
        </mxCell>
        <mxCell id="Fd0U6N9erYDGeEgJ23XQ-8" value="" style="edgeStyle=orthogonalEdgeStyle;rounded=0;orthogonalLoop=1;jettySize=auto;html=1;" edge="1" parent="1" source="Fd0U6N9erYDGeEgJ23XQ-5" target="Fd0U6N9erYDGeEgJ23XQ-7">
          <mxGeometry relative="1" as="geometry" />
        </mxCell>
        <mxCell id="Fd0U6N9erYDGeEgJ23XQ-5" value="&lt;p style=&quot;margin-bottom: 0cm; line-height: 0%;&quot; class=&quot;MsoNormal&quot;&gt;&lt;span style=&quot;font-size: 9.5pt; font-family: &amp;quot;Cascadia Mono&amp;quot;;&quot;&gt;cout &lt;/span&gt;&lt;span style=&quot;font-size:9.5pt;&lt;br/&gt;font-family:&amp;quot;Cascadia Mono&amp;quot;;color:teal;mso-font-kerning:0pt&quot;&gt;&amp;lt;&amp;lt;&lt;/span&gt;&lt;span style=&quot;font-size: 9.5pt; font-family: &amp;quot;Cascadia Mono&amp;quot;;&quot;&gt; &lt;/span&gt;&lt;span style=&quot;font-size:9.5pt;font-family:&amp;quot;Cascadia Mono&amp;quot;;&lt;br/&gt;color:#A31515;mso-font-kerning:0pt&quot;&gt;&quot;Введите длину ребра a: &quot;&lt;/span&gt;&lt;span style=&quot;font-size: 9.5pt; font-family: &amp;quot;Cascadia Mono&amp;quot;;&quot;&gt;;&lt;/span&gt;&lt;/p&gt;&lt;p style=&quot;margin-bottom: 0cm; line-height: 0%;&quot; class=&quot;MsoNormal&quot;&gt;&lt;span style=&quot;font-family: &amp;quot;Cascadia Mono&amp;quot;; font-size: 9.5pt; background-color: initial;&quot;&gt;cin&amp;nbsp;&lt;/span&gt;&lt;span style=&quot;background-color: initial; font-size: 9.5pt; font-family: &amp;quot;Cascadia Mono&amp;quot;; color: teal;&quot;&gt;&amp;gt;&amp;gt;&lt;/span&gt;&lt;span style=&quot;background-color: initial; font-size: 9.5pt; font-family: &amp;quot;Cascadia Mono&amp;quot;;&quot;&gt; a;&lt;/span&gt;&lt;/p&gt;&lt;p style=&quot;margin-bottom: 0cm; line-height: 0%;&quot; class=&quot;MsoNormal&quot;&gt;&lt;span style=&quot;background-color: initial; font-size: 9.5pt; font-family: &amp;quot;Cascadia Mono&amp;quot;;&quot;&gt;cout&amp;nbsp;&lt;/span&gt;&lt;span style=&quot;background-color: initial; font-size: 9.5pt; font-family: &amp;quot;Cascadia Mono&amp;quot;; color: teal;&quot;&gt;&amp;lt;&amp;lt;&lt;/span&gt;&lt;span style=&quot;background-color: initial; font-size: 9.5pt; font-family: &amp;quot;Cascadia Mono&amp;quot;;&quot;&gt; &lt;/span&gt;&lt;span style=&quot;background-color: initial; font-size: 9.5pt; font-family: &amp;quot;Cascadia Mono&amp;quot;; color: rgb(163, 21, 21);&quot;&gt;&quot;Введите длину ребра b: &quot;&lt;/span&gt;&lt;span style=&quot;background-color: initial; font-size: 9.5pt; font-family: &amp;quot;Cascadia Mono&amp;quot;;&quot;&gt;;&lt;/span&gt;&lt;/p&gt;&lt;p style=&quot;margin-bottom: 0cm; line-height: 0%;&quot; class=&quot;MsoNormal&quot;&gt;&lt;span style=&quot;font-family: &amp;quot;Cascadia Mono&amp;quot;; font-size: 9.5pt; background-color: initial;&quot;&gt;cin&amp;nbsp;&lt;/span&gt;&lt;span style=&quot;background-color: initial; font-size: 9.5pt; font-family: &amp;quot;Cascadia Mono&amp;quot;; color: teal;&quot;&gt;&amp;gt;&amp;gt;&lt;/span&gt;&lt;span style=&quot;background-color: initial; font-size: 9.5pt; font-family: &amp;quot;Cascadia Mono&amp;quot;;&quot;&gt; b;&lt;/span&gt;&lt;/p&gt;&lt;p style=&quot;margin-bottom: 0cm; line-height: 0%;&quot; class=&quot;MsoNormal&quot;&gt;&lt;span style=&quot;font-family: &amp;quot;Cascadia Mono&amp;quot;; font-size: 9.5pt; background-color: initial;&quot;&gt;cout&amp;nbsp;&lt;/span&gt;&lt;span style=&quot;background-color: initial; font-size: 9.5pt; font-family: &amp;quot;Cascadia Mono&amp;quot;; color: teal;&quot;&gt;&amp;lt;&amp;lt;&lt;/span&gt;&lt;span style=&quot;background-color: initial; font-size: 9.5pt; font-family: &amp;quot;Cascadia Mono&amp;quot;;&quot;&gt; &lt;/span&gt;&lt;span style=&quot;background-color: initial; font-size: 9.5pt; font-family: &amp;quot;Cascadia Mono&amp;quot;; color: rgb(163, 21, 21);&quot;&gt;&quot;Введите длину ребра c: &quot;&lt;/span&gt;&lt;span style=&quot;background-color: initial; font-size: 9.5pt; font-family: &amp;quot;Cascadia Mono&amp;quot;;&quot;&gt;;&lt;/span&gt;&lt;/p&gt;&lt;p style=&quot;margin-bottom: 0cm; line-height: 0%;&quot; class=&quot;MsoNormal&quot;&gt;&lt;span style=&quot;background-color: initial; font-size: 9.5pt; font-family: &amp;quot;Cascadia Mono&amp;quot;;&quot; lang=&quot;EN-US&quot;&gt;cin &lt;/span&gt;&lt;span style=&quot;background-color: initial; font-size: 9.5pt; font-family: &amp;quot;Cascadia Mono&amp;quot;; color: teal;&quot; lang=&quot;EN-US&quot;&gt;&amp;gt;&amp;gt;&lt;/span&gt;&lt;span style=&quot;background-color: initial; font-size: 9.5pt; font-family: &amp;quot;Cascadia Mono&amp;quot;;&quot; lang=&quot;EN-US&quot;&gt; c;&lt;/span&gt;&lt;/p&gt;" style="shape=parallelogram;perimeter=parallelogramPerimeter;whiteSpace=wrap;html=1;fixedSize=1;fontSize=18;fontFamily=Times New Roman;strokeWidth=2;" vertex="1" parent="1">
          <mxGeometry x="249" y="160" width="330" height="140" as="geometry" />
        </mxCell>
        <mxCell id="Fd0U6N9erYDGeEgJ23XQ-10" value="" style="edgeStyle=orthogonalEdgeStyle;rounded=0;orthogonalLoop=1;jettySize=auto;html=1;" edge="1" parent="1" source="Fd0U6N9erYDGeEgJ23XQ-7" target="Fd0U6N9erYDGeEgJ23XQ-9">
          <mxGeometry relative="1" as="geometry" />
        </mxCell>
        <mxCell id="Fd0U6N9erYDGeEgJ23XQ-7" value="&lt;p style=&quot;margin-bottom: 0cm; line-height: 2%;&quot; class=&quot;MsoNormal&quot;&gt;&lt;span style=&quot;font-size:9.5pt;font-family:&lt;br/&gt;&amp;quot;Cascadia Mono&amp;quot;;color:black;mso-font-kerning:0pt;mso-ansi-language:EN-US&quot; lang=&quot;EN-US&quot;&gt;_s = 2&amp;nbsp;&lt;/span&gt;&lt;span style=&quot;background-color: initial; font-size: 9.5pt;&quot; lang=&quot;EN-US&quot;&gt;* (&lt;/span&gt;&lt;span style=&quot;background-color: initial; font-size: 9.5pt; font-family: &amp;quot;Cascadia Mono&amp;quot;;&quot; lang=&quot;EN-US&quot;&gt;a&lt;/span&gt;&lt;span style=&quot;background-color: initial; font-size: 9.5pt; font-family: &amp;quot;Cascadia Mono&amp;quot;;&quot; lang=&quot;EN-US&quot;&gt; * &lt;/span&gt;&lt;span style=&quot;background-color: initial; font-size: 9.5pt; font-family: &amp;quot;Cascadia Mono&amp;quot;; color: gray;&quot; lang=&quot;EN-US&quot;&gt;b&lt;/span&gt;&lt;span style=&quot;background-color: initial; font-size: 9.5pt;&quot; lang=&quot;EN-US&quot;&gt; + &lt;/span&gt;&lt;span style=&quot;background-color: initial; font-size: 9.5pt; font-family: &amp;quot;Cascadia Mono&amp;quot;;&quot; lang=&quot;EN-US&quot;&gt;b&lt;/span&gt;&lt;span style=&quot;background-color: initial; font-size: 9.5pt; font-family: &amp;quot;Cascadia Mono&amp;quot;;&quot; lang=&quot;EN-US&quot;&gt; * &lt;/span&gt;&lt;span style=&quot;background-color: initial; font-size: 9.5pt; font-family: &amp;quot;Cascadia Mono&amp;quot;; color: gray;&quot; lang=&quot;EN-US&quot;&gt;c&lt;/span&gt;&lt;span style=&quot;background-color: initial; font-size: 9.5pt;&quot; lang=&quot;EN-US&quot;&gt; + &lt;/span&gt;&lt;span style=&quot;background-color: initial; font-size: 9.5pt; font-family: &amp;quot;Cascadia Mono&amp;quot;;&quot; lang=&quot;EN-US&quot;&gt;a&lt;/span&gt;&lt;span style=&quot;background-color: initial; font-size: 9.5pt; font-family: &amp;quot;Cascadia Mono&amp;quot;;&quot; lang=&quot;EN-US&quot;&gt; * &lt;/span&gt;&lt;span style=&quot;background-color: initial; font-size: 9.5pt; font-family: &amp;quot;Cascadia Mono&amp;quot;; color: gray;&quot; lang=&quot;EN-US&quot;&gt;c&lt;/span&gt;&lt;span style=&quot;background-color: initial; font-size: 9.5pt;&quot; lang=&quot;EN-US&quot;&gt;);&lt;/span&gt;&lt;/p&gt;&lt;p style=&quot;margin-bottom: 0cm; line-height: 2%;&quot; class=&quot;MsoNormal&quot;&gt;&lt;span style=&quot;background-color: initial; font-size: 9.5pt;&quot; lang=&quot;EN-US&quot;&gt;_v = &lt;/span&gt;&lt;span style=&quot;background-color: initial; font-size: 9.5pt; font-family: &amp;quot;Cascadia Mono&amp;quot;; color: gray;&quot; lang=&quot;EN-US&quot;&gt;a&lt;/span&gt;&lt;span style=&quot;background-color: initial; font-size: 9.5pt;&quot; lang=&quot;EN-US&quot;&gt; * &lt;/span&gt;&lt;span style=&quot;background-color: initial; font-size: 9.5pt; font-family: &amp;quot;Cascadia Mono&amp;quot;;&quot; lang=&quot;EN-US&quot;&gt;b&lt;/span&gt;&lt;span style=&quot;background-color: initial; font-size: 9.5pt; font-family: &amp;quot;Cascadia Mono&amp;quot;;&quot; lang=&quot;EN-US&quot;&gt; * &lt;/span&gt;&lt;span style=&quot;background-color: initial; font-size: 9.5pt; font-family: &amp;quot;Cascadia Mono&amp;quot;; color: gray;&quot; lang=&quot;EN-US&quot;&gt;c&lt;/span&gt;&lt;span style=&quot;background-color: initial; font-size: 9.5pt;&quot; lang=&quot;EN-US&quot;&gt;;&lt;/span&gt;&lt;/p&gt;" style="whiteSpace=wrap;html=1;fontSize=18;fontFamily=Times New Roman;strokeWidth=2;" vertex="1" parent="1">
          <mxGeometry x="306" y="340" width="216" height="60" as="geometry" />
        </mxCell>
        <mxCell id="Fd0U6N9erYDGeEgJ23XQ-11" value="" style="edgeStyle=orthogonalEdgeStyle;rounded=0;orthogonalLoop=1;jettySize=auto;html=1;" edge="1" parent="1" source="Fd0U6N9erYDGeEgJ23XQ-9" target="Fd0U6N9erYDGeEgJ23XQ-2">
          <mxGeometry relative="1" as="geometry" />
        </mxCell>
        <mxCell id="Fd0U6N9erYDGeEgJ23XQ-9" value="&lt;span style=&quot;font-size: 9.5pt; line-height: 107%; font-family: &amp;quot;Cascadia Mono&amp;quot;;&quot;&gt;cout &lt;/span&gt;&lt;span style=&quot;font-size:9.5pt;&lt;br/&gt;line-height:107%;font-family:&amp;quot;Cascadia Mono&amp;quot;;mso-fareast-font-family:Calibri;&lt;br/&gt;mso-fareast-theme-font:minor-latin;color:teal;mso-font-kerning:0pt;mso-ansi-language:&lt;br/&gt;RU;mso-fareast-language:EN-US;mso-bidi-language:AR-SA&quot;&gt;&amp;lt;&amp;lt;&lt;/span&gt;&lt;span style=&quot;font-size: 9.5pt; line-height: 107%; font-family: &amp;quot;Cascadia Mono&amp;quot;;&quot;&gt; &lt;/span&gt;&lt;span style=&quot;font-size:9.5pt;line-height:107%;font-family:&amp;quot;Cascadia Mono&amp;quot;;mso-fareast-font-family:&lt;br/&gt;Calibri;mso-fareast-theme-font:minor-latin;color:#A31515;mso-font-kerning:0pt;&lt;br/&gt;mso-ansi-language:RU;mso-fareast-language:EN-US;mso-bidi-language:AR-SA&quot;&gt;&quot;Площадь поверхности = &quot;&lt;/span&gt;&lt;span style=&quot;font-size: 9.5pt; line-height: 107%; font-family: &amp;quot;Cascadia Mono&amp;quot;;&quot;&gt; &lt;/span&gt;&lt;span style=&quot;font-size:9.5pt;line-height:&lt;br/&gt;107%;font-family:&amp;quot;Cascadia Mono&amp;quot;;mso-fareast-font-family:Calibri;mso-fareast-theme-font:&lt;br/&gt;minor-latin;color:teal;mso-font-kerning:0pt;mso-ansi-language:RU;mso-fareast-language:&lt;br/&gt;EN-US;mso-bidi-language:AR-SA&quot;&gt;&amp;lt;&amp;lt;&lt;/span&gt;&lt;span style=&quot;font-size: 9.5pt; line-height: 107%; font-family: &amp;quot;Cascadia Mono&amp;quot;;&quot;&gt; _s &lt;/span&gt;&lt;span style=&quot;font-size:9.5pt;line-height:107%;font-family:&amp;quot;Cascadia Mono&amp;quot;;mso-fareast-font-family:&lt;br/&gt;Calibri;mso-fareast-theme-font:minor-latin;color:teal;mso-font-kerning:0pt;&lt;br/&gt;mso-ansi-language:RU;mso-fareast-language:EN-US;mso-bidi-language:AR-SA&quot;&gt;&amp;lt;&amp;lt;&lt;/span&gt;&lt;span style=&quot;font-size: 9.5pt; line-height: 107%; font-family: &amp;quot;Cascadia Mono&amp;quot;;&quot;&gt; endl&amp;nbsp;&lt;/span&gt;&lt;div&gt;&lt;span style=&quot;font-size:9.5pt;line-height:107%;font-family:&amp;quot;Cascadia Mono&amp;quot;;mso-fareast-font-family:&lt;br/&gt;Calibri;mso-fareast-theme-font:minor-latin;color:teal;mso-font-kerning:0pt;&lt;br/&gt;mso-ansi-language:RU;mso-fareast-language:EN-US;mso-bidi-language:AR-SA&quot;&gt;&amp;lt;&amp;lt;&lt;/span&gt;&lt;span style=&quot;font-size: 9.5pt; line-height: 107%; font-family: &amp;quot;Cascadia Mono&amp;quot;;&quot;&gt; &lt;/span&gt;&lt;span style=&quot;font-size:9.5pt;line-height:107%;font-family:&amp;quot;Cascadia Mono&amp;quot;;mso-fareast-font-family:&lt;br/&gt;Calibri;mso-fareast-theme-font:minor-latin;color:#A31515;mso-font-kerning:0pt;&lt;br/&gt;mso-ansi-language:RU;mso-fareast-language:EN-US;mso-bidi-language:AR-SA&quot;&gt;&quot;Объем параллепипеда = &quot;&lt;/span&gt;&lt;span style=&quot;font-size: 9.5pt; line-height: 107%; font-family: &amp;quot;Cascadia Mono&amp;quot;;&quot;&gt; &lt;/span&gt;&lt;span style=&quot;font-size:9.5pt;line-height:&lt;br/&gt;107%;font-family:&amp;quot;Cascadia Mono&amp;quot;;mso-fareast-font-family:Calibri;mso-fareast-theme-font:&lt;br/&gt;minor-latin;color:teal;mso-font-kerning:0pt;mso-ansi-language:RU;mso-fareast-language:&lt;br/&gt;EN-US;mso-bidi-language:AR-SA&quot;&gt;&amp;lt;&amp;lt;&lt;/span&gt;&lt;span style=&quot;font-size: 9.5pt; line-height: 107%; font-family: &amp;quot;Cascadia Mono&amp;quot;;&quot;&gt; _v &lt;/span&gt;&lt;span style=&quot;font-size:9.5pt;line-height:107%;font-family:&amp;quot;Cascadia Mono&amp;quot;;mso-fareast-font-family:&lt;br/&gt;Calibri;mso-fareast-theme-font:minor-latin;color:teal;mso-font-kerning:0pt;&lt;br/&gt;mso-ansi-language:RU;mso-fareast-language:EN-US;mso-bidi-language:AR-SA&quot;&gt;&amp;lt;&amp;lt;&lt;/span&gt;&lt;span style=&quot;font-size: 9.5pt; line-height: 107%; font-family: &amp;quot;Cascadia Mono&amp;quot;;&quot;&gt; endl;&lt;/span&gt;&lt;/div&gt;" style="whiteSpace=wrap;html=1;fontSize=18;fontFamily=Times New Roman;strokeWidth=2;" vertex="1" parent="1">
          <mxGeometry x="229" y="440" width="370" height="80" as="geometry" />
        </mxCell>
      </root>
    </mxGraphModel>
  </diagram>
</mxfile>
